<svg xmlns="http://www.w3.org/2000/svg" xml:space="preserve"
    style="fill-rule:evenodd;clip-rule:evenodd;stroke-linejoin:round;stroke-miterlimit:2" viewBox="0 0 61 62">
    <path class="j-color"
        d="M11.471 48.342V13.74h9.454v35.358c0 3.698-1.124 6.618-3.372 8.761-2.248 2.143-5 3.214-8.257 3.214-3.256 0-6.355-1.345-9.296-4.034l4.349-6.996c1.26 1.471 2.668 2.206 4.223 2.206.84 0 1.533-.325 2.08-.977.546-.651.819-1.628.819-2.93Zm.756-38.825c-1.05-1.092-1.575-2.416-1.575-3.971 0-1.554.535-2.867 1.607-3.939C13.33.536 14.643 0 16.198 0c1.555 0 2.868.536 3.939 1.607 1.072 1.072 1.607 2.385 1.607 3.939 0 1.555-.535 2.868-1.607 3.94-1.071 1.071-2.384 1.607-3.939 1.607-1.555 0-2.878-.525-3.971-1.576Z" />
    <path class="p-color"
        d="M45.19 13.236c3.95 0 7.469 1.649 10.557 4.947 3.089 3.299 4.633 7.448 4.633 12.448s-1.544 9.181-4.633 12.542c-3.088 3.362-6.702 5.043-10.84 5.043-4.139 0-7.469-1.66-9.99-4.98v16.703h-9.454V13.803h9.454v3.782c2.899-2.9 6.324-4.349 10.273-4.349ZM34.791 30.82c0 2.731.767 4.969 2.3 6.713 1.534 1.743 3.393 2.615 5.578 2.615 2.185 0 4.097-.872 5.736-2.615 1.638-1.744 2.458-3.982 2.458-6.713s-.799-5.021-2.395-6.87c-1.597-1.849-3.509-2.773-5.736-2.773s-4.107.914-5.641 2.742c-1.533 1.827-2.3 4.128-2.3 6.901Z" />

    <style>
        .j-color,
        .p-color {
            fill-rule: nonzero
        }

        .j-color {
            fill: #5a5d61;

        }

        .p-color {
            fill: #ecba00;
        }

        @media (prefers-color-scheme: dark) {
            .j-color {
                fill: #ccc;
            }
        }
    </style>
</svg>